<svg xmlns="http://www.w3.org/2000/svg" viewBox="0 0 512 512"><path d="M320 128a32 32 0 0 0-32-32H112a32 32 0 0 0-32 32v256a32 32 0 0 0 32 32h176a32 32 0 0 0 32-32v-32a16 16 0 0 1 16-16h16a16 16 0 0 1 16 16v32a80.09 80.09 0 0 1-80 80H112a80.09 80.09 0 0 1-80-80V128a80.09 80.09 0 0 1 80-80h176a80.09 80.09 0 0 1 80 80v32a16 16 0 0 1-16 16h-16a16 16 0 0 1-16-16zm154.34 114.34-96-96a16 16 0 0 0-22.63 0l-22.63 22.63a16 16 0 0 0 0 22.63L370.75 240H176a16 16 0 0 0-16 16v32a16 16 0 0 0 16 16h194.75l-38.34 38.34a16 16 0 0 0 0 22.63l22.63 22.63a16 16 0 0 0 22.63 0l96-96a16 16 0 0 0 0-22.63z"/></svg>
